<!--
@Author Charles https://github.com/Charles94jp

This icon is from GitHub Atom https://atom.io/
The original author used some static svg and css implementation, I integrated it into a dynamic svg picture
-->

<svg width="366" height="366" viewBox="0 0 366 366" xmlns="http://www.w3.org/2000/svg">

	<style>
    @keyframes hero-logo-circle{
        to {
            transform:rotate(1turn)
        }
    }

    .hero-logo-circle1 {
        animation: hero-logo-circle 30s linear infinite;
        transform-origin: 50%;
    }

    .hero-logo-circle2 {
        animation: hero-logo-circle 40s linear infinite;
        transform-origin: 50%;
    }

    .hero-logo-circle3 {
        animation: hero-logo-circle 50s linear infinite;
        transform-origin: 50%;
    }
    
    .hero-logo-circle4 {
        animation: hero-logo-circle 60s linear infinite;
        transform-origin: 50%;
    }

    .hero-logo-circle5 {
        animation: hero-logo-circle 70s linear infinite;
        transform-origin: 50%;
    }

    .hero-logo-circle6 {
        animation: hero-logo-circle 80s linear infinite;
        transform-origin: 50%;
    }

    .hero-logo-circle7 {
        animation: hero-logo-circle 90s linear infinite;
        transform-origin: 50%;
    }

    .hero-logo-circle8 {
        animation: hero-logo-circle 100s linear infinite;
        transform-origin: 50%;
    }

    .hero-logo-circle9 {
        animation: hero-logo-circle 110s linear infinite;
        transform-origin: 50%;
    }

    .hero-logo-circle10 {
        animation: hero-logo-circle 120s linear infinite;
        transform-origin: 50%;
    }

	</style>
    
    <!-- red 5aec -->
    <g width="366" height="366" viewBox="0 0 366 366">
    <circle class="hero-logo-circle1" stroke="#C13F21" stroke-width="2" cx="183" cy="183" r="130" fill="none" fill-rule="evenodd" opacity=".278" stroke-dasharray="35,7,10,80"/>
    </g>

    <!-- red 2f7 -->
    <g width="366" height="366" viewBox="0 0 366 366">
    <circle class="hero-logo-circle2" stroke="#C13F21" stroke-width="2" cx="183" cy="183" r="130" fill="none" fill-rule="evenodd" stroke-dasharray="35,7,10,80"/>
    </g>

    <!-- orange d9d1 -->
    <g width="366" height="366" viewBox="0 0 366 366">
    <path class="hero-logo-circle3" d="M251.346 306.299c68.096-37.746 92.7-123.549 54.953-191.645-37.746-68.096-123.549-92.7-191.645-54.953-68.096 37.746-92.7 123.549-54.953 191.645 37.746 68.096 123.549 92.7 191.645 54.953z" stroke="#D36E2D" stroke-width="4" fill="none" fill-rule="evenodd" stroke-dasharray="140,4,10,80" opacity=".441"/>
    </g>

    <!-- orange 2351 -->
    <g width="366" height="366" viewBox="0 0 366 366">
    <circle class="hero-logo-circle4" stroke="#D36E2D" stroke-width="4" cx="183" cy="183" r="141" fill="none" fill-rule="evenodd" stroke-dasharray="51,4,10,80"/>
    </g>

    <!-- yellow af7 -->
    <g width="366" height="366" viewBox="0 0 366 366">
    <path class="hero-logo-circle5" d="M92.733 302.788c66.157 49.854 160.202 36.636 210.055-29.52 49.854-66.158 36.636-160.203-29.52-210.056-66.158-49.854-160.203-36.636-210.056 29.52-49.854 66.158-36.636 160.203 29.52 210.056z" stroke="#DDA032" stroke-width="8" fill="none" fill-rule="evenodd" stroke-dasharray="56,2,4" opacity=".688"/>
    </g>

    <!-- yellow bf8 -->
    <g width="366" height="366" viewBox="0 0 366 366">
    <circle class="hero-logo-circle6" stroke="#DDA032" stroke-width="8" cx="183" cy="183" r="150" fill="none" fill-rule="evenodd" stroke-dasharray="76,2,40,180"/>
    </g>

    <!-- green 6b12 -->
    <g width="366" height="366" viewBox="0 0 366 366">
    <circle class="hero-logo-circle7" stroke="#78AF9F" stroke-width="4" cx="183" cy="183" r="159" fill="none" fill-rule="evenodd" opacity=".278" stroke-dasharray="46,2,12"/>
    </g>

    <!-- green 8a75 -->
    <g width="366" height="366" viewBox="0 0 366 366">
    <circle class="hero-logo-circle8" stroke="#78AF9F" stroke-width="4" cx="183" cy="183" r="159" fill="none" fill-rule="evenodd" stroke-dasharray="76,4,70"/>
    </g>

    <!-- blue 930 -->
    <g width="366" height="366" viewBox="0 0 366 366">
    <path class="hero-logo-circle9" d="M18.997 106.524c-42.236 90.576-3.049 198.242 87.527 240.479 90.576 42.236 198.242 3.049 240.479-87.527 42.236-90.576 3.049-198.242-87.527-240.479C168.9-23.239 61.234 15.948 18.997 106.524z" stroke="#659CC8" stroke-width="2" fill="none" fill-rule="evenodd" stroke-dasharray="76,4,70" opacity=".191"/>
    </g>
    
    <!-- blue 5099 -->
    <g width="366" height="366" viewBox="0 0 366 366">
    <circle class="hero-logo-circle10" stroke="#659CC8" stroke-width="2" cx="183" cy="183" r="181" fill="none" fill-rule="evenodd" stroke-dasharray="2,45,161"/>
    </g>

</svg>